<svg version="1.1" id="Layer_1" xmlns="http://www.w3.org/2000/svg" xmlns:xlink="http://www.w3.org/1999/xlink" x="0px" y="0px"
	 width="100%" viewBox="0 0 200 200" enable-background="new 0 0 200 200" xml:space="preserve">
<path fill="#FDFEFF" opacity="1.000000" stroke="none" 
	d="
M201.000000,102.000000 
	C201.000000,134.922195 201.000000,167.844406 201.000000,201.000000 
	C172.312866,201.000000 143.625092,201.000000 114.636963,200.639801 
	C136.590149,196.916489 155.932495,187.651566 171.830276,171.608337 
	C187.754822,155.538086 197.208847,136.321320 200.185623,113.486420 
	C159.132645,113.486420 118.854057,113.486420 78.575478,113.486420 
	C93.231194,117.354057 108.064445,120.672737 122.898788,123.986549 
	C137.874893,127.332031 152.852097,130.672699 167.977890,134.048752 
	C151.423676,169.635773 107.332298,185.630051 71.116173,169.758728 
	C33.623230,153.327866 16.082851,110.032066 31.782860,72.418785 
	C39.657936,53.552071 53.064289,39.911236 71.895363,32.021519 
	C95.435150,22.158970 118.344727,24.534687 140.545334,37.136440 
	C144.956848,29.990282 149.202072,23.113487 154.294144,14.864900 
	C144.090897,11.020606 134.725937,7.372910 125.266792,3.988515 
	C121.621429,2.684238 117.761932,1.978463 114.000000,1.000000 
	C142.923828,1.000000 171.847656,1.000000 201.000000,1.000000 
	C201.000000,27.353788 201.000000,53.708237 200.560013,80.547287 
	C198.845291,81.031883 197.570557,81.031883 196.369644,81.031883 
	C195.396347,88.943932 195.396347,88.943932 192.113861,88.206726 
	C191.979691,85.929626 191.847534,83.652977 191.713364,81.341660 
	C189.972549,81.341660 188.571381,81.341660 187.120956,81.341660 
	C187.120956,88.366707 187.120956,95.092079 187.120956,102.116188 
	C188.909698,101.961113 190.314407,101.839333 192.094742,101.684982 
	C192.094742,98.913368 192.094742,96.473656 192.094742,93.675636 
	C198.804565,94.087936 194.095932,99.807411 196.825760,102.000000 
	C198.017380,102.000000 199.508682,102.000000 201.000000,102.000000 
M154.124084,97.297760 
	C154.197937,98.757256 154.271790,100.216759 154.365234,102.063736 
	C156.219711,101.960823 157.763657,101.875145 159.368912,101.786064 
	C159.577377,99.061516 159.751709,96.783142 159.926041,94.504768 
	C161.366821,95.663147 161.782944,96.847664 162.162231,98.043861 
	C162.555099,99.282883 162.912292,100.533203 163.366913,102.051949 
	C165.069656,101.973312 166.616821,101.901855 168.621552,101.809273 
	C167.735413,98.716034 166.947250,96.198082 166.316803,93.641243 
	C166.086945,92.708977 165.861664,91.485489 166.264984,90.732834 
	C169.661118,84.395157 167.766068,81.126083 160.493942,81.024063 
	C158.546249,80.996742 156.597855,81.019936 154.124084,81.019936 
	C154.124084,86.456726 154.124084,91.398315 154.124084,97.297760 
M82.156143,94.324440 
	C82.773293,95.631859 83.749908,96.889496 83.939148,98.256165 
	C84.474159,102.120178 86.548859,102.767960 90.301636,101.481499 
	C89.317688,98.138809 88.351913,94.857887 87.386147,91.576973 
	C88.654152,89.056282 89.966789,85.691803 88.826424,83.829056 
	C85.806145,78.895561 80.625740,81.653473 76.279648,81.101471 
	C76.279648,88.430931 76.279648,95.157555 76.279648,102.142563 
	C78.059708,101.984779 79.479416,101.858932 80.909813,101.732140 
	C81.072250,99.083458 81.213539,96.779617 82.156143,94.324440 
M141.198105,81.358849 
	C139.004211,88.053841 136.810333,94.748840 134.616440,101.443840 
	C135.156830,101.896324 135.697205,102.348816 136.237595,102.801308 
	C137.644379,101.615723 138.882050,99.899574 140.502136,99.383186 
	C142.390182,98.781395 144.765167,98.754189 146.645706,99.358612 
	C148.412369,99.926437 149.810043,101.642326 151.370056,102.853065 
	C151.793381,102.418015 152.216690,101.982971 152.639999,101.547928 
	C151.093521,96.181915 149.315781,90.868370 148.082092,85.431381 
	C147.264252,81.827019 145.565781,80.339157 141.198105,81.358849 
M103.948235,90.553619 
	C103.043785,90.071007 102.148216,89.570732 101.232635,89.110245 
	C100.082436,88.531769 98.915863,87.985855 97.756355,87.425888 
	C98.843414,86.754784 99.924187,85.529831 101.018730,85.517380 
	C104.184456,85.481384 104.725311,84.087990 103.786156,81.358452 
	C100.069603,81.358452 96.357697,81.358452 92.652649,81.358452 
	C92.652649,88.420166 92.652649,95.119164 92.652649,102.071709 
	C96.199883,102.071709 99.351906,102.164055 102.491081,102.004166 
	C103.238403,101.966110 104.379074,101.201035 104.550034,100.559998 
	C104.739075,99.851151 104.235664,98.655304 103.633652,98.131371 
	C103.132202,97.694954 101.954079,98.135841 101.249573,97.810989 
	C100.006233,97.237663 98.895332,96.377121 97.728989,95.636818 
	C98.790237,94.939491 99.859123,94.253441 100.910583,93.541649 
	C101.943756,92.842224 102.959244,92.116653 103.948235,90.553619 
M121.892197,84.678635 
	C121.892197,90.416496 121.892197,96.154358 121.892197,101.871475 
	C126.306046,101.871475 129.929260,101.871475 133.948730,101.871475 
	C133.846863,100.472908 133.760376,99.285576 133.707092,98.553993 
	C131.356033,96.753090 125.658661,100.317566 127.343208,94.045380 
	C129.465607,92.635841 134.566879,95.278473 132.610092,89.324715 
	C130.824661,89.191811 129.062302,89.060623 127.299934,88.929443 
	C127.058128,88.442024 126.816322,87.954605 126.574516,87.467186 
	C127.787849,86.726166 129.012970,86.003624 130.211151,85.238846 
	C131.371445,84.498238 132.504044,83.714188 133.648804,82.949226 
	C132.392654,82.310715 131.194092,81.350739 129.866165,81.112770 
	C128.094681,80.795311 126.147446,80.733780 124.422791,81.158974 
	C123.430573,81.403580 122.728798,82.826340 121.892197,84.678635 
M116.304352,90.229309 
	C114.647339,89.070206 112.990334,87.911102 111.333321,86.751999 
	C111.585045,86.246277 111.836761,85.740547 112.088478,85.234818 
	C113.943634,85.126778 115.798790,85.018730 118.293900,84.873413 
	C117.844040,83.480530 117.377647,81.355324 117.132477,81.380554 
	C113.990784,81.703751 110.203049,81.473480 108.009102,83.200317 
	C106.626083,84.288879 107.230484,88.505875 107.771294,91.150200 
	C108.000511,92.270927 110.431953,92.858566 111.712715,93.876854 
	C112.526039,94.523499 113.063667,95.516869 113.724930,96.354759 
	C112.671989,96.917496 111.670525,97.748749 110.550858,97.963379 
	C109.540298,98.157082 108.400429,97.676186 105.915192,97.255272 
	C107.072693,99.422096 107.928528,101.930473 108.455894,101.863220 
	C111.695061,101.450142 115.649704,101.350304 117.841644,99.417374 
	C120.353958,97.201920 120.073784,93.336166 116.304352,90.229309 
M170.355484,88.244072 
	C170.751953,91.474785 170.524216,94.954948 171.692078,97.877403 
	C173.418808,102.198387 181.531723,104.089699 184.234634,101.049049 
	C184.162796,99.988899 184.076294,98.712662 184.064316,98.535835 
	C181.159576,97.396263 177.851700,97.113770 176.955902,95.495811 
	C175.777466,93.367340 175.565659,89.681152 176.689545,87.619476 
	C177.612137,85.927040 181.092285,85.628792 183.854340,84.550323 
	C184.057083,81.198166 183.944122,81.048592 180.394485,80.837463 
	C175.429550,80.542145 172.105164,82.653320 170.355484,88.244072 
z"/>
<path fill="#04ABE5" opacity="1.000000" stroke="none" 
	d="
M113.531342,1.000000 
	C117.761932,1.978463 121.621429,2.684238 125.266792,3.988515 
	C134.725937,7.372910 144.090897,11.020606 154.294144,14.864900 
	C149.202072,23.113487 144.956848,29.990282 140.545334,37.136440 
	C118.344727,24.534687 95.435150,22.158970 71.895363,32.021519 
	C53.064289,39.911236 39.657936,53.552071 31.782860,72.418785 
	C16.082851,110.032066 33.623230,153.327866 71.116173,169.758728 
	C107.332298,185.630051 151.423676,169.635773 167.977890,134.048752 
	C152.852097,130.672699 137.874893,127.332031 122.898788,123.986549 
	C108.064445,120.672737 93.231194,117.354057 78.575478,113.486420 
	C118.854057,113.486420 159.132645,113.486420 200.185623,113.486420 
	C197.208847,136.321320 187.754822,155.538086 171.830276,171.608337 
	C155.932495,187.651566 136.590149,196.916489 114.168304,200.639801 
	C105.312439,201.000000 96.624870,201.000000 87.309921,200.643005 
	C85.232841,199.941803 83.786827,199.581100 82.332909,199.255753 
	C40.859680,189.975143 14.719113,164.697510 3.554650,123.779152 
	C2.752514,120.839287 1.853804,117.925766 0.999999,115.000000 
	C1.000000,105.979103 1.000000,96.958214 1.356949,87.309906 
	C2.057396,85.232574 2.416638,83.786179 2.742102,82.332222 
	C12.025413,40.860374 37.302521,14.718558 78.221161,3.554215 
	C81.160904,2.752128 84.074333,1.853657 87.000000,1.000000 
	C95.687561,1.000000 104.375130,1.000000 113.531342,1.000000 
z"/>
<path fill="#FEFFFF" opacity="1.000000" stroke="none" 
	d="
M86.531342,1.000000 
	C84.074333,1.853657 81.160904,2.752128 78.221161,3.554215 
	C37.302521,14.718558 12.025413,40.860374 2.742102,82.332222 
	C2.416638,83.786179 2.057396,85.232574 1.356949,86.841248 
	C1.000000,58.406425 1.000000,29.812853 1.000000,1.000000 
	C29.353851,1.000000 57.708267,1.000000 86.531342,1.000000 
z"/>
<path fill="#FEFFFF" opacity="1.000000" stroke="none" 
	d="
M0.999999,115.468658 
	C1.853804,117.925766 2.752514,120.839287 3.554650,123.779152 
	C14.719113,164.697510 40.859680,189.975143 82.332909,199.255753 
	C83.786827,199.581100 85.232841,199.941803 86.841270,200.643005 
	C58.406433,201.000000 29.812864,201.000000 1.000000,201.000000 
	C1.000000,172.646149 1.000000,144.291733 0.999999,115.468658 
z"/>
<path fill="#04ABE5" opacity="1.000000" stroke="none" 
	d="
M201.000000,101.531464 
	C199.508682,102.000000 198.017380,102.000000 196.825760,102.000000 
	C194.095932,99.807411 198.804565,94.087936 192.094742,93.675636 
	C192.094742,96.473656 192.094742,98.913368 192.094742,101.684982 
	C190.314407,101.839333 188.909698,101.961113 187.120956,102.116188 
	C187.120956,95.092079 187.120956,88.366707 187.120956,81.341660 
	C188.571381,81.341660 189.972549,81.341660 191.713364,81.341660 
	C191.847534,83.652977 191.979691,85.929626 192.113861,88.206726 
	C195.396347,88.943932 195.396347,88.943932 196.369644,81.031883 
	C197.570557,81.031883 198.845291,81.031883 200.560013,81.015945 
	C201.000000,87.687645 201.000000,94.375290 201.000000,101.531464 
z"/>
<path fill="#0EAFE6" opacity="1.000000" stroke="none" 
	d="
M154.124084,96.818832 
	C154.124084,91.398315 154.124084,86.456726 154.124084,81.019936 
	C156.597855,81.019936 158.546249,80.996742 160.493942,81.024063 
	C167.766068,81.126083 169.661118,84.395157 166.264984,90.732834 
	C165.861664,91.485489 166.086945,92.708977 166.316803,93.641243 
	C166.947250,96.198082 167.735413,98.716034 168.621552,101.809273 
	C166.616821,101.901855 165.069656,101.973312 163.366913,102.051949 
	C162.912292,100.533203 162.555099,99.282883 162.162231,98.043861 
	C161.782944,96.847664 161.366821,95.663147 159.926041,94.504768 
	C159.751709,96.783142 159.577377,99.061516 159.368912,101.786064 
	C157.763657,101.875145 156.219711,101.960823 154.365234,102.063736 
	C154.271790,100.216759 154.197937,98.757256 154.124084,96.818832 
z"/>
<path fill="#08ADE6" opacity="1.000000" stroke="none" 
	d="
M81.755486,94.400116 
	C81.213539,96.779617 81.072250,99.083458 80.909813,101.732140 
	C79.479416,101.858932 78.059708,101.984779 76.279648,102.142563 
	C76.279648,95.157555 76.279648,88.430931 76.279648,81.101471 
	C80.625740,81.653473 85.806145,78.895561 88.826424,83.829056 
	C89.966789,85.691803 88.654152,89.056282 87.386147,91.576973 
	C88.351913,94.857887 89.317688,98.138809 90.301636,101.481499 
	C86.548859,102.767960 84.474159,102.120178 83.939148,98.256165 
	C83.749908,96.889496 82.773293,95.631859 81.755486,94.400116 
z"/>
<path fill="#0CAEE6" opacity="1.000000" stroke="none" 
	d="
M141.580429,81.219406 
	C145.565781,80.339157 147.264252,81.827019 148.082092,85.431381 
	C149.315781,90.868370 151.093521,96.181915 152.639999,101.547928 
	C152.216690,101.982971 151.793381,102.418015 151.370056,102.853065 
	C149.810043,101.642326 148.412369,99.926437 146.645706,99.358612 
	C144.765167,98.754189 142.390182,98.781395 140.502136,99.383186 
	C138.882050,99.899574 137.644379,101.615723 136.237595,102.801308 
	C135.697205,102.348816 135.156830,101.896324 134.616440,101.443840 
	C136.810333,94.748840 139.004211,88.053841 141.580429,81.219406 
z"/>
<path fill="#16B1E7" opacity="1.000000" stroke="none" 
	d="
M103.965363,90.978088 
	C102.959244,92.116653 101.943756,92.842224 100.910583,93.541649 
	C99.859123,94.253441 98.790237,94.939491 97.728989,95.636818 
	C98.895332,96.377121 100.006233,97.237663 101.249573,97.810989 
	C101.954079,98.135841 103.132202,97.694954 103.633652,98.131371 
	C104.235664,98.655304 104.739075,99.851151 104.550034,100.559998 
	C104.379074,101.201035 103.238403,101.966110 102.491081,102.004166 
	C99.351906,102.164055 96.199883,102.071709 92.652649,102.071709 
	C92.652649,95.119164 92.652649,88.420166 92.652649,81.358452 
	C96.357697,81.358452 100.069603,81.358452 103.786156,81.358452 
	C104.725311,84.087990 104.184456,85.481384 101.018730,85.517380 
	C99.924187,85.529831 98.843414,86.754784 97.756355,87.425888 
	C98.915863,87.985855 100.082436,88.531769 101.232635,89.110245 
	C102.148216,89.570732 103.043785,90.071007 103.965363,90.978088 
z"/>
<path fill="#07ACE6" opacity="1.000000" stroke="none" 
	d="
M121.894241,84.198700 
	C122.728798,82.826340 123.430573,81.403580 124.422791,81.158974 
	C126.147446,80.733780 128.094681,80.795311 129.866165,81.112770 
	C131.194092,81.350739 132.392654,82.310715 133.648804,82.949226 
	C132.504044,83.714188 131.371445,84.498238 130.211151,85.238846 
	C129.012970,86.003624 127.787849,86.726166 126.574516,87.467186 
	C126.816322,87.954605 127.058128,88.442024 127.299934,88.929443 
	C129.062302,89.060623 130.824661,89.191811 132.610092,89.324715 
	C134.566879,95.278473 129.465607,92.635841 127.343208,94.045380 
	C125.658661,100.317566 131.356033,96.753090 133.707092,98.553993 
	C133.760376,99.285576 133.846863,100.472908 133.948730,101.871475 
	C129.929260,101.871475 126.306046,101.871475 121.892197,101.871475 
	C121.892197,96.154358 121.892197,90.416496 121.894241,84.198700 
z"/>
<path fill="#0CAEE6" opacity="1.000000" stroke="none" 
	d="
M116.626167,90.457657 
	C120.073784,93.336166 120.353958,97.201920 117.841644,99.417374 
	C115.649704,101.350304 111.695061,101.450142 108.455894,101.863220 
	C107.928528,101.930473 107.072693,99.422096 105.915192,97.255272 
	C108.400429,97.676186 109.540298,98.157082 110.550858,97.963379 
	C111.670525,97.748749 112.671989,96.917496 113.724930,96.354759 
	C113.063667,95.516869 112.526039,94.523499 111.712715,93.876854 
	C110.431953,92.858566 108.000511,92.270927 107.771294,91.150200 
	C107.230484,88.505875 106.626083,84.288879 108.009102,83.200317 
	C110.203049,81.473480 113.990784,81.703751 117.132477,81.380554 
	C117.377647,81.355324 117.844040,83.480530 118.293900,84.873413 
	C115.798790,85.018730 113.943634,85.126778 112.088478,85.234818 
	C111.836761,85.740547 111.585045,86.246277 111.333321,86.751999 
	C112.990334,87.911102 114.647339,89.070206 116.626167,90.457657 
z"/>
<path fill="#0BAEE6" opacity="1.000000" stroke="none" 
	d="
M170.488510,87.860893 
	C172.105164,82.653320 175.429550,80.542145 180.394485,80.837463 
	C183.944122,81.048592 184.057083,81.198166 183.854340,84.550323 
	C181.092285,85.628792 177.612137,85.927040 176.689545,87.619476 
	C175.565659,89.681152 175.777466,93.367340 176.955902,95.495811 
	C177.851700,97.113770 181.159576,97.396263 184.064316,98.535835 
	C184.076294,98.712662 184.162796,99.988899 184.234634,101.049049 
	C181.531723,104.089699 173.418808,102.198387 171.692078,97.877403 
	C170.524216,94.954948 170.751953,91.474785 170.488510,87.860893 
z"/>
</svg>